<mxfile host="app.diagrams.net" modified="2023-04-30T03:44:23.612Z" agent="Mozilla/5.0 (Windows NT 10.0; Win64; x64) AppleWebKit/537.36 (KHTML, like Gecko) Chrome/111.0.0.0 Safari/537.36 OPR/97.0.0.0 (Edition std-1)" etag="W-d_0Xn4SBE-DAZVI_HS" version="21.2.3" type="device">
  <diagram name="Page-1" id="c4acf3e9-155e-7222-9cf6-157b1a14988f">
    <mxGraphModel dx="1205" dy="471" grid="1" gridSize="10" guides="1" tooltips="1" connect="1" arrows="1" fold="1" page="1" pageScale="1" pageWidth="850" pageHeight="1100" background="none" math="0" shadow="0">
      <root>
        <mxCell id="0" />
        <mxCell id="1" parent="0" />
        <mxCell id="y79aAtjxTL_BCW33FEww-10" value="Gasto" style="swimlane;fontStyle=1;align=center;verticalAlign=top;childLayout=stackLayout;horizontal=1;startSize=20;horizontalStack=0;resizeParent=1;resizeParentMax=0;resizeLast=0;collapsible=1;marginBottom=0;whiteSpace=wrap;html=1;" parent="1" vertex="1">
          <mxGeometry x="40" y="150" width="360" height="210" as="geometry">
            <mxRectangle x="220" y="130" width="70" height="30" as="alternateBounds" />
          </mxGeometry>
        </mxCell>
        <mxCell id="y79aAtjxTL_BCW33FEww-11" value="- nome : String&lt;br&gt;- tipo : TipoGas&lt;br&gt;- formaPag : FormaPag" style="text;strokeColor=none;fillColor=none;align=left;verticalAlign=top;spacingLeft=4;spacingRight=4;overflow=hidden;rotatable=0;points=[[0,0.5],[1,0.5]];portConstraint=eastwest;whiteSpace=wrap;html=1;" parent="y79aAtjxTL_BCW33FEww-10" vertex="1">
          <mxGeometry y="20" width="360" height="60" as="geometry" />
        </mxCell>
        <mxCell id="y79aAtjxTL_BCW33FEww-12" value="" style="line;strokeWidth=1;fillColor=none;align=left;verticalAlign=middle;spacingTop=-1;spacingLeft=3;spacingRight=3;rotatable=0;labelPosition=right;points=[];portConstraint=eastwest;strokeColor=inherit;" parent="y79aAtjxTL_BCW33FEww-10" vertex="1">
          <mxGeometry y="80" width="360" height="16" as="geometry" />
        </mxCell>
        <mxCell id="y79aAtjxTL_BCW33FEww-13" value="- setNome(n : String) : void&lt;br&gt;- setTipo(t: Int, d: LocalDate) : TipoGas&lt;br&gt;- setForma(f : Int, v: double) : FormaPag&lt;br&gt;+ Gasto(n : String, t : Int, d : LocalDate, f : Int, v : double) : Gasto&lt;br&gt;+ getNome() : String&lt;br&gt;+ getTipo() : TipoGas&lt;br&gt;+getForma() : FormaPag" style="text;strokeColor=none;fillColor=none;align=left;verticalAlign=top;spacingLeft=4;spacingRight=4;overflow=hidden;rotatable=0;points=[[0,0.5],[1,0.5]];portConstraint=eastwest;whiteSpace=wrap;html=1;" parent="y79aAtjxTL_BCW33FEww-10" vertex="1">
          <mxGeometry y="96" width="360" height="114" as="geometry" />
        </mxCell>
        <mxCell id="oUAIKIRUX-CbwLK9Vi71-5" value="TipoGas" style="swimlane;fontStyle=1;align=center;verticalAlign=top;childLayout=stackLayout;horizontal=1;startSize=20;horizontalStack=0;resizeParent=1;resizeParentMax=0;resizeLast=0;collapsible=1;marginBottom=0;whiteSpace=wrap;html=1;" vertex="1" parent="1">
          <mxGeometry x="500" y="80" width="240" height="160" as="geometry">
            <mxRectangle x="220" y="130" width="70" height="30" as="alternateBounds" />
          </mxGeometry>
        </mxCell>
        <mxCell id="oUAIKIRUX-CbwLK9Vi71-6" value="- nome : String&lt;br&gt;- data : LocalDate" style="text;strokeColor=none;fillColor=none;align=left;verticalAlign=top;spacingLeft=4;spacingRight=4;overflow=hidden;rotatable=0;points=[[0,0.5],[1,0.5]];portConstraint=eastwest;whiteSpace=wrap;html=1;" vertex="1" parent="oUAIKIRUX-CbwLK9Vi71-5">
          <mxGeometry y="20" width="240" height="40" as="geometry" />
        </mxCell>
        <mxCell id="oUAIKIRUX-CbwLK9Vi71-7" value="" style="line;strokeWidth=1;fillColor=none;align=left;verticalAlign=middle;spacingTop=-1;spacingLeft=3;spacingRight=3;rotatable=0;labelPosition=right;points=[];portConstraint=eastwest;strokeColor=inherit;" vertex="1" parent="oUAIKIRUX-CbwLK9Vi71-5">
          <mxGeometry y="60" width="240" height="16" as="geometry" />
        </mxCell>
        <mxCell id="oUAIKIRUX-CbwLK9Vi71-8" value="- setNome(n : String) : void&lt;br&gt;- setData (d : LocalDate) : void&lt;br&gt;+ TipoGas (t: Int, d: LocalDate) : TipoGas&lt;br&gt;+ getNome() : String&lt;br&gt;+ getData() : LocalDate" style="text;strokeColor=none;fillColor=none;align=left;verticalAlign=top;spacingLeft=4;spacingRight=4;overflow=hidden;rotatable=0;points=[[0,0.5],[1,0.5]];portConstraint=eastwest;whiteSpace=wrap;html=1;" vertex="1" parent="oUAIKIRUX-CbwLK9Vi71-5">
          <mxGeometry y="76" width="240" height="84" as="geometry" />
        </mxCell>
        <mxCell id="oUAIKIRUX-CbwLK9Vi71-10" value="Ganho" style="swimlane;fontStyle=1;align=center;verticalAlign=top;childLayout=stackLayout;horizontal=1;startSize=20;horizontalStack=0;resizeParent=1;resizeParentMax=0;resizeLast=0;collapsible=1;marginBottom=0;whiteSpace=wrap;html=1;" vertex="1" parent="1">
          <mxGeometry x="30" y="500" width="360" height="210" as="geometry">
            <mxRectangle x="220" y="130" width="70" height="30" as="alternateBounds" />
          </mxGeometry>
        </mxCell>
        <mxCell id="oUAIKIRUX-CbwLK9Vi71-11" value="- nome : String&lt;br&gt;- tipo : TipoGan&lt;br&gt;- data : LocalDate" style="text;strokeColor=none;fillColor=none;align=left;verticalAlign=top;spacingLeft=4;spacingRight=4;overflow=hidden;rotatable=0;points=[[0,0.5],[1,0.5]];portConstraint=eastwest;whiteSpace=wrap;html=1;" vertex="1" parent="oUAIKIRUX-CbwLK9Vi71-10">
          <mxGeometry y="20" width="360" height="60" as="geometry" />
        </mxCell>
        <mxCell id="oUAIKIRUX-CbwLK9Vi71-12" value="" style="line;strokeWidth=1;fillColor=none;align=left;verticalAlign=middle;spacingTop=-1;spacingLeft=3;spacingRight=3;rotatable=0;labelPosition=right;points=[];portConstraint=eastwest;strokeColor=inherit;" vertex="1" parent="oUAIKIRUX-CbwLK9Vi71-10">
          <mxGeometry y="80" width="360" height="16" as="geometry" />
        </mxCell>
        <mxCell id="oUAIKIRUX-CbwLK9Vi71-13" value="- setNome(n : String) : void&lt;br&gt;- setTipo(t: Int, v: double) : TipoGan&lt;br&gt;- setData(d : LocalDate) : void&lt;br&gt;+ Ganho(n : String, t : Int,&amp;nbsp;v : double, d : LocalDate) : Ganho&lt;br&gt;+ getNome() : String&lt;br&gt;+ getTipo() : TipoGan&lt;br&gt;+ getData() : String" style="text;strokeColor=none;fillColor=none;align=left;verticalAlign=top;spacingLeft=4;spacingRight=4;overflow=hidden;rotatable=0;points=[[0,0.5],[1,0.5]];portConstraint=eastwest;whiteSpace=wrap;html=1;" vertex="1" parent="oUAIKIRUX-CbwLK9Vi71-10">
          <mxGeometry y="96" width="360" height="114" as="geometry" />
        </mxCell>
        <mxCell id="oUAIKIRUX-CbwLK9Vi71-16" value="TipoGan" style="swimlane;fontStyle=1;align=center;verticalAlign=top;childLayout=stackLayout;horizontal=1;startSize=20;horizontalStack=0;resizeParent=1;resizeParentMax=0;resizeLast=0;collapsible=1;marginBottom=0;whiteSpace=wrap;html=1;" vertex="1" parent="1">
          <mxGeometry x="490" y="500" width="240" height="160" as="geometry">
            <mxRectangle x="220" y="130" width="70" height="30" as="alternateBounds" />
          </mxGeometry>
        </mxCell>
        <mxCell id="oUAIKIRUX-CbwLK9Vi71-17" value="- nome : String&lt;br&gt;- valor : double" style="text;strokeColor=none;fillColor=none;align=left;verticalAlign=top;spacingLeft=4;spacingRight=4;overflow=hidden;rotatable=0;points=[[0,0.5],[1,0.5]];portConstraint=eastwest;whiteSpace=wrap;html=1;" vertex="1" parent="oUAIKIRUX-CbwLK9Vi71-16">
          <mxGeometry y="20" width="240" height="40" as="geometry" />
        </mxCell>
        <mxCell id="oUAIKIRUX-CbwLK9Vi71-18" value="" style="line;strokeWidth=1;fillColor=none;align=left;verticalAlign=middle;spacingTop=-1;spacingLeft=3;spacingRight=3;rotatable=0;labelPosition=right;points=[];portConstraint=eastwest;strokeColor=inherit;" vertex="1" parent="oUAIKIRUX-CbwLK9Vi71-16">
          <mxGeometry y="60" width="240" height="16" as="geometry" />
        </mxCell>
        <mxCell id="oUAIKIRUX-CbwLK9Vi71-19" value="- setNome(n : String) : void&lt;br&gt;- setValor (v : double) : void&lt;br&gt;+ TipoGan (t: Int, v: double) : TipoGan&lt;br&gt;+ getNome() : String&lt;br&gt;+ getData() : String" style="text;strokeColor=none;fillColor=none;align=left;verticalAlign=top;spacingLeft=4;spacingRight=4;overflow=hidden;rotatable=0;points=[[0,0.5],[1,0.5]];portConstraint=eastwest;whiteSpace=wrap;html=1;" vertex="1" parent="oUAIKIRUX-CbwLK9Vi71-16">
          <mxGeometry y="76" width="240" height="84" as="geometry" />
        </mxCell>
        <mxCell id="oUAIKIRUX-CbwLK9Vi71-34" value="&lt;h1&gt;&lt;span style=&quot;background-color: initial;&quot;&gt;Trabalho POO I&lt;/span&gt;&lt;br&gt;&lt;/h1&gt;&lt;div&gt;&lt;span style=&quot;background-color: initial;&quot;&gt;Diagrama UML software registro financeiro&lt;/span&gt;&lt;/div&gt;&lt;div&gt;&lt;span style=&quot;background-color: initial;&quot;&gt;Aluno : Giovani Sousa&lt;/span&gt;&lt;/div&gt;" style="text;html=1;strokeColor=none;fillColor=none;spacing=5;spacingTop=-20;whiteSpace=wrap;overflow=hidden;rounded=0;" vertex="1" parent="1">
          <mxGeometry x="40" y="10" width="240" height="120" as="geometry" />
        </mxCell>
        <mxCell id="oUAIKIRUX-CbwLK9Vi71-35" value="&lt;font style=&quot;font-size: 15px;&quot;&gt;&lt;b style=&quot;font-size: 15px;&quot;&gt;*&lt;/b&gt;&lt;/font&gt;" style="text;html=1;strokeColor=none;fillColor=none;align=center;verticalAlign=middle;whiteSpace=wrap;rounded=0;strokeWidth=5;fontSize=15;" vertex="1" parent="1">
          <mxGeometry x="465" y="160" width="35" height="20" as="geometry" />
        </mxCell>
        <mxCell id="oUAIKIRUX-CbwLK9Vi71-36" value="&lt;font style=&quot;font-size: 15px;&quot;&gt;&lt;b style=&quot;font-size: 15px;&quot;&gt;1&lt;/b&gt;&lt;/font&gt;" style="text;html=1;strokeColor=none;fillColor=none;align=center;verticalAlign=middle;whiteSpace=wrap;rounded=0;strokeWidth=5;fontSize=15;" vertex="1" parent="1">
          <mxGeometry x="390" y="170" width="35" height="20" as="geometry" />
        </mxCell>
        <mxCell id="oUAIKIRUX-CbwLK9Vi71-38" value="&lt;font style=&quot;font-size: 15px;&quot;&gt;&lt;b style=&quot;font-size: 15px;&quot;&gt;1&lt;/b&gt;&lt;/font&gt;" style="text;html=1;strokeColor=none;fillColor=none;align=center;verticalAlign=middle;whiteSpace=wrap;rounded=0;strokeWidth=5;fontSize=15;" vertex="1" parent="1">
          <mxGeometry x="380" y="520" width="35" height="20" as="geometry" />
        </mxCell>
        <mxCell id="oUAIKIRUX-CbwLK9Vi71-39" value="&lt;font style=&quot;font-size: 15px;&quot;&gt;&lt;b style=&quot;font-size: 15px;&quot;&gt;*&lt;/b&gt;&lt;/font&gt;" style="text;html=1;strokeColor=none;fillColor=none;align=center;verticalAlign=middle;whiteSpace=wrap;rounded=0;strokeWidth=5;fontSize=15;" vertex="1" parent="1">
          <mxGeometry x="455" y="520" width="35" height="20" as="geometry" />
        </mxCell>
        <mxCell id="oUAIKIRUX-CbwLK9Vi71-45" value="FormaPag" style="swimlane;fontStyle=1;align=center;verticalAlign=top;childLayout=stackLayout;horizontal=1;startSize=20;horizontalStack=0;resizeParent=1;resizeParentMax=0;resizeLast=0;collapsible=1;marginBottom=0;whiteSpace=wrap;html=1;" vertex="1" parent="1">
          <mxGeometry x="500" y="260" width="240" height="160" as="geometry">
            <mxRectangle x="220" y="130" width="70" height="30" as="alternateBounds" />
          </mxGeometry>
        </mxCell>
        <mxCell id="oUAIKIRUX-CbwLK9Vi71-46" value="- desc: String&lt;br&gt;- valor : double" style="text;strokeColor=none;fillColor=none;align=left;verticalAlign=top;spacingLeft=4;spacingRight=4;overflow=hidden;rotatable=0;points=[[0,0.5],[1,0.5]];portConstraint=eastwest;whiteSpace=wrap;html=1;" vertex="1" parent="oUAIKIRUX-CbwLK9Vi71-45">
          <mxGeometry y="20" width="240" height="40" as="geometry" />
        </mxCell>
        <mxCell id="oUAIKIRUX-CbwLK9Vi71-47" value="" style="line;strokeWidth=1;fillColor=none;align=left;verticalAlign=middle;spacingTop=-1;spacingLeft=3;spacingRight=3;rotatable=0;labelPosition=right;points=[];portConstraint=eastwest;strokeColor=inherit;" vertex="1" parent="oUAIKIRUX-CbwLK9Vi71-45">
          <mxGeometry y="60" width="240" height="16" as="geometry" />
        </mxCell>
        <mxCell id="oUAIKIRUX-CbwLK9Vi71-48" value="- setDesc(d : String) : void&lt;br&gt;- setValor(v : double) : void&lt;br&gt;+ FormaPag (f: Int, v: double) : FormaPag&lt;br&gt;+ getDesc() : String&lt;br&gt;+ getValor() : double" style="text;strokeColor=none;fillColor=none;align=left;verticalAlign=top;spacingLeft=4;spacingRight=4;overflow=hidden;rotatable=0;points=[[0,0.5],[1,0.5]];portConstraint=eastwest;whiteSpace=wrap;html=1;" vertex="1" parent="oUAIKIRUX-CbwLK9Vi71-45">
          <mxGeometry y="76" width="240" height="84" as="geometry" />
        </mxCell>
        <mxCell id="oUAIKIRUX-CbwLK9Vi71-51" style="edgeStyle=orthogonalEdgeStyle;rounded=0;orthogonalLoop=1;jettySize=auto;html=1;entryX=-0.014;entryY=0.2;entryDx=0;entryDy=0;entryPerimeter=0;endArrow=diamondThin;endFill=1;" edge="1" parent="1" source="y79aAtjxTL_BCW33FEww-13" target="oUAIKIRUX-CbwLK9Vi71-46">
          <mxGeometry relative="1" as="geometry" />
        </mxCell>
        <mxCell id="oUAIKIRUX-CbwLK9Vi71-52" style="edgeStyle=orthogonalEdgeStyle;rounded=0;orthogonalLoop=1;jettySize=auto;html=1;entryX=-0.006;entryY=0.278;entryDx=0;entryDy=0;entryPerimeter=0;endArrow=diamondThin;endFill=1;" edge="1" parent="1" source="y79aAtjxTL_BCW33FEww-11" target="oUAIKIRUX-CbwLK9Vi71-8">
          <mxGeometry relative="1" as="geometry">
            <mxPoint x="495" y="177" as="targetPoint" />
          </mxGeometry>
        </mxCell>
        <mxCell id="oUAIKIRUX-CbwLK9Vi71-53" value="&lt;font style=&quot;font-size: 15px;&quot;&gt;&lt;b style=&quot;font-size: 15px;&quot;&gt;1&lt;/b&gt;&lt;/font&gt;" style="text;html=1;strokeColor=none;fillColor=none;align=center;verticalAlign=middle;whiteSpace=wrap;rounded=0;strokeWidth=5;fontSize=15;" vertex="1" parent="1">
          <mxGeometry x="390" y="280" width="35" height="20" as="geometry" />
        </mxCell>
        <mxCell id="oUAIKIRUX-CbwLK9Vi71-54" value="&lt;font style=&quot;font-size: 15px;&quot;&gt;&lt;b style=&quot;font-size: 15px;&quot;&gt;*&lt;/b&gt;&lt;/font&gt;" style="text;html=1;strokeColor=none;fillColor=none;align=center;verticalAlign=middle;whiteSpace=wrap;rounded=0;strokeWidth=5;fontSize=15;" vertex="1" parent="1">
          <mxGeometry x="465" y="270" width="35" height="20" as="geometry" />
        </mxCell>
        <mxCell id="oUAIKIRUX-CbwLK9Vi71-55" style="edgeStyle=orthogonalEdgeStyle;rounded=0;orthogonalLoop=1;jettySize=auto;html=1;entryX=-0.017;entryY=0.733;entryDx=0;entryDy=0;entryPerimeter=0;endArrow=diamondThin;endFill=1;" edge="1" parent="1" source="oUAIKIRUX-CbwLK9Vi71-11" target="oUAIKIRUX-CbwLK9Vi71-17">
          <mxGeometry relative="1" as="geometry" />
        </mxCell>
      </root>
    </mxGraphModel>
  </diagram>
</mxfile>
